<?xml version="1.0" encoding="UTF-8" standalone="no"?>
<!-- Created with Inkscape (http://www.inkscape.org/) -->

<svg
   version="1.1"
   id="svg360"
   width="140"
   height="140"
   viewBox="0 0 140 140"
   sodipodi:docname="logo.svg"
   inkscape:version="1.1.1 (c3084ef, 2021-09-22)"
   xmlns:inkscape="http://www.inkscape.org/namespaces/inkscape"
   xmlns:sodipodi="http://sodipodi.sourceforge.net/DTD/sodipodi-0.dtd"
   xmlns="http://www.w3.org/2000/svg"
   xmlns:svg="http://www.w3.org/2000/svg">
  <defs
     id="defs364">
    <clipPath
       clipPathUnits="userSpaceOnUse"
       id="clipPath378">
      <path
         d="M 0,500 H 500 V 0 H 0 Z"
         id="path376" />
    </clipPath>
    <clipPath
       clipPathUnits="userSpaceOnUse"
       id="clipPath422">
      <path
         d="M 0,500 H 500 V 0 H 0 Z"
         id="path420" />
    </clipPath>
    <clipPath
       clipPathUnits="userSpaceOnUse"
       id="clipPath436">
      <path
         d="M 0,500 H 500 V 0 H 0 Z"
         id="path434" />
    </clipPath>
    <clipPath
       clipPathUnits="userSpaceOnUse"
       id="clipPath472">
      <path
         d="M 0,500 H 500 V 0 H 0 Z"
         id="path470" />
    </clipPath>
    <clipPath
       clipPathUnits="userSpaceOnUse"
       id="clipPath494">
      <path
         d="M 0,500 H 500 V 0 H 0 Z"
         id="path492" />
    </clipPath>
    <clipPath
       clipPathUnits="userSpaceOnUse"
       id="clipPath534">
      <path
         d="M 0,500 H 500 V 0 H 0 Z"
         id="path532" />
    </clipPath>
    <clipPath
       clipPathUnits="userSpaceOnUse"
       id="clipPath570">
      <path
         d="M 0,500 H 500 V 0 H 0 Z"
         id="path568" />
    </clipPath>
    <clipPath
       clipPathUnits="userSpaceOnUse"
       id="clipPath592">
      <path
         d="M 0,500 H 500 V 0 H 0 Z"
         id="path590" />
    </clipPath>
    <clipPath
       clipPathUnits="userSpaceOnUse"
       id="clipPath632">
      <path
         d="M 0,500 H 500 V 0 H 0 Z"
         id="path630" />
    </clipPath>
    <clipPath
       clipPathUnits="userSpaceOnUse"
       id="clipPath668">
      <path
         d="M 0,500 H 500 V 0 H 0 Z"
         id="path666" />
    </clipPath>
  </defs>
  <sodipodi:namedview
     id="namedview362"
     pagecolor="#ffffff"
     bordercolor="#000000"
     borderopacity="0.25"
     inkscape:showpageshadow="2"
     inkscape:pageopacity="0.0"
     inkscape:pagecheckerboard="0"
     inkscape:deskcolor="#d1d1d1"
     showgrid="false"
     inkscape:zoom="1.7394826"
     inkscape:cx="-50.014871"
     inkscape:cy="-18.971158"
     inkscape:window-width="1440"
     inkscape:window-height="847"
     inkscape:window-x="1920"
     inkscape:window-y="25"
     inkscape:window-maximized="1"
     inkscape:current-layer="g1384"
     inkscape:pageshadow="2">
    <inkscape:page
       x="0"
       y="0"
       id="page366"
       width="234"
       height="190" />
  </sodipodi:namedview>
  <g
     id="g368"
     inkscape:groupmode="layer"
     inkscape:label="Page 1"
     transform="matrix(1.3333333,0,0,-1.3333333,0,666.66667)">
    <g
       id="g1081"
       transform="translate(-6.9074681,-68.674045)">
      <g
         id="g1120">
        <g
           id="g1141"
           transform="translate(2.082862,61.121427)">
          <g
             id="g1544"
             transform="translate(-75.906711,35.56742)">
            <g
               id="g2548"
               transform="translate(-7.3691209,27.947693)">
              <g
                 id="g9467"
                 transform="translate(-178.20693,19.392294)"
                 inkscape:export-filename="../Imagens/islogo.png"
                 inkscape:export-xdpi="96"
                 inkscape:export-ydpi="96">
                <g
                   id="g1367"
                   transform="matrix(0.32174036,-0.0237789,0.02366839,0.32324257,272.4708,210.16441)" />
                <g
                   id="g1384"
                   inkscape:export-filename="/Users/jesantos/Downloads/g1384.png"
                   inkscape:export-xdpi="96"
                   inkscape:export-ydpi="96">
                  <g
                     id="g1464"
                     inkscape:export-filename="/Users/jesantos/Downloads/g1464.png"
                     inkscape:export-xdpi="96"
                     inkscape:export-ydpi="96"
                     transform="translate(-30.450865,12.072556)">
                    <text
                       xml:space="preserve"
                       style="font-style:normal;font-variant:normal;font-weight:bold;font-stretch:normal;font-size:61.6771px;font-family:'Fira Sans Condensed';-inkscape-font-specification:'Fira Sans Condensed,  Bold';text-align:start;text-anchor:start;fill:#1a1a1a;stroke-width:0.64247"
                       x="355.58026"
                       y="-411.39523"
                       id="text1085"
                       transform="scale(1,-1)"><tspan
                         sodipodi:role="line"
                         id="tspan1083"
                         style="stroke-width:0.64247"
                         x="355.58026"
                         y="-411.39523">  </tspan></text>
                    <rect
                       style="fill:#5a50e5;fill-opacity:1;stroke-width:0.882514"
                       id="rect9319"
                       width="105"
                       height="105"
                       x="296.83725"
                       y="-412.56876"
                       transform="scale(1,-1)"
                       rx="7.9322019"
                       ry="0" />
                    <g
                       aria-label="I'm  selling"
                       transform="matrix(1,0,0,-1,16.384183,-0.63767464)"
                       id="text2021"
                       style="font-weight:bold;font-size:30px;line-height:1;font-family:'Open Sans Condensed';-inkscape-font-specification:'Open Sans Condensed,  Bold';fill:#5a2ca0;stroke-width:0.75">
                      <path
                         d="m 298.37761,-367.7265 h -4.8 v -20.79 h 4.8 z"
                         style="font-family:'Fira Sans Condensed';-inkscape-font-specification:'Fira Sans Condensed,  Bold';fill:#f9f9f9"
                         id="path2233" />
                      <path
                         d="m 301.31759,-388.5165 h 4.05 l -0.51,8.34 h -3 z"
                         style="font-family:'Fira Sans Condensed';-inkscape-font-specification:'Fira Sans Condensed,  Bold';fill:#f9f9f9"
                         id="path2235" />
                      <path
                         d="m 324.35761,-384.1665 q 1.71,0 2.73,1.26 1.05,1.23 1.05,3.39 v 11.79 h -4.56 v -11.19 q 0,-1.8 -1.05,-1.8 -0.6,0 -1.08,0.48 -0.48,0.48 -0.96,1.41 v 11.1 h -4.53 v -11.19 q 0,-1.8 -1.08,-1.8 -1.08,0 -2.04,1.89 v 11.1 h -4.56 v -15.93 h 4.02 l 0.3,1.89 q 0.84,-1.2 1.83,-1.8 1.02,-0.6 2.31,-0.6 1.2,0 2.07,0.66 0.87,0.63 1.29,1.86 0.87,-1.26 1.89,-1.89 1.05,-0.63 2.37,-0.63 z"
                         style="font-family:'Fira Sans Condensed';-inkscape-font-specification:'Fira Sans Condensed,  Bold';fill:#f9f9f9"
                         id="path2237" />
                      <path
                         d="m 298.67761,-353.62297 q 1.59,0 2.97,0.51 1.38,0.51 2.43,1.44 l -1.68,2.52 q -1.8,-1.17 -3.39,-1.17 -0.84,0 -1.29,0.36 -0.42,0.33 -0.42,0.93 0,0.45 0.21,0.78 0.21,0.3 0.84,0.63 0.63,0.3 1.89,0.75 2.22,0.75 3.27,1.89 1.08,1.14 1.08,3.09 0,2.4 -1.83,3.81 -1.83,1.41 -4.68,1.41 -1.83,0 -3.42,-0.63 -1.56,-0.63 -2.67,-1.71 l 2.19,-2.46 q 1.86,1.5 3.72,1.5 0.93,0 1.44,-0.39 0.54,-0.42 0.54,-1.14 0,-0.57 -0.24,-0.93 -0.21,-0.36 -0.84,-0.69 -0.6,-0.33 -1.89,-0.75 -2.19,-0.78 -3.21,-1.92 -0.99,-1.17 -0.99,-2.94 0,-1.38 0.72,-2.49 0.72,-1.11 2.07,-1.74 1.35,-0.66 3.18,-0.66 z"
                         style="font-family:'Fira Sans Condensed';-inkscape-font-specification:'Fira Sans Condensed,  Bold';fill:#f9f9f9"
                         id="path2239" />
                      <path
                         d="m 319.52762,-345.46297 q 0,0.24 -0.09,1.68 h -8.88 q 0.18,2.1 0.93,2.91 0.75,0.81 2.13,0.81 0.9,0 1.71,-0.33 0.81,-0.33 1.77,-1.02 l 1.89,2.55 q -2.46,2.19 -5.73,2.19 -3.6,0 -5.49,-2.22 -1.86,-2.25 -1.86,-6.18 0,-3.84 1.8,-6.18 1.8,-2.37 5.07,-2.37 3.15,0 4.95,2.13 1.8,2.1 1.8,6.03 z m -4.53,-1.32 q 0,-1.89 -0.51,-2.82 -0.48,-0.96 -1.65,-0.96 -1.05,0 -1.62,0.9 -0.57,0.87 -0.69,3.09 h 4.47 z"
                         style="font-family:'Fira Sans Condensed';-inkscape-font-specification:'Fira Sans Condensed,  Bold';fill:#f9f9f9"
                         id="path2241" />
                      <path
                         d="m 325.88764,-336.67297 q -1.98,0 -3.09,-1.14 -1.08,-1.14 -1.08,-3.18 v -18.45 l 4.62,-0.48 v 18.72 q 0,0.87 0.72,0.87 0.3,0 0.66,-0.12 l 0.87,3.21 q -1.26,0.57 -2.7,0.57 z"
                         style="font-family:'Fira Sans Condensed';-inkscape-font-specification:'Fira Sans Condensed,  Bold';fill:#f9f9f9"
                         id="path2243" />
                      <path
                         d="m 334.22764,-336.67297 q -1.98,0 -3.09,-1.14 -1.08,-1.14 -1.08,-3.18 v -18.45 l 4.62,-0.48 v 18.72 q 0,0.87 0.72,0.87 0.3,0 0.66,-0.12 l 0.87,3.21 q -1.26,0.57 -2.7,0.57 z"
                         style="font-family:'Fira Sans Condensed';-inkscape-font-specification:'Fira Sans Condensed,  Bold';fill:#f9f9f9"
                         id="path2245" />
                      <path
                         d="m 340.85764,-361.42297 q 1.17,0 1.92,0.75 0.75,0.75 0.75,1.86 0,1.14 -0.75,1.89 -0.75,0.75 -1.92,0.75 -1.17,0 -1.95,-0.75 -0.75,-0.75 -0.75,-1.89 0,-1.11 0.75,-1.86 0.78,-0.75 1.95,-0.75 z m 2.31,24.24 h -4.62 v -15.93 h 4.62 z"
                         style="font-family:'Fira Sans Condensed';-inkscape-font-specification:'Fira Sans Condensed,  Bold';fill:#f9f9f9"
                         id="path2247" />
                      <path
                         d="m 354.95762,-353.62297 q 1.86,0 2.94,1.26 1.08,1.23 1.08,3.39 v 11.79 h -4.62 v -11.16 q 0,-0.99 -0.3,-1.38 -0.3,-0.42 -0.87,-0.42 -1.14,0 -2.28,1.98 v 10.98 h -4.62 v -15.93 h 4.02 l 0.33,1.89 q 0.9,-1.2 1.92,-1.8 1.05,-0.6 2.4,-0.6 z"
                         style="font-family:'Fira Sans Condensed';-inkscape-font-specification:'Fira Sans Condensed,  Bold';fill:#f9f9f9"
                         id="path2249" />
                      <path
                         d="m 375.3876,-352.18297 q -1.32,0.6 -4.11,0.6 1.44,0.66 2.1,1.65 0.69,0.96 0.69,2.49 0,1.53 -0.75,2.76 -0.75,1.2 -2.16,1.89 -1.38,0.66 -3.27,0.66 -0.9,0 -1.62,-0.18 -0.48,0.33 -0.48,0.96 0,0.48 0.33,0.75 0.33,0.27 1.26,0.27 h 1.95 q 2.64,0 4.2,1.29 1.56,1.26 1.56,3.27 0,2.4 -1.98,3.81 -1.98,1.41 -5.67,1.41 -3.96,0 -5.49,-1.29 -1.53,-1.29 -1.53,-3.81 h 4.14 q 0,1.11 0.6,1.59 0.6,0.48 2.34,0.48 1.65,0 2.31,-0.51 0.66,-0.48 0.66,-1.38 0,-1.65 -2.13,-1.65 h -1.71 q -2.4,0 -3.54,-0.84 -1.14,-0.87 -1.14,-2.28 0,-0.87 0.48,-1.65 0.48,-0.78 1.29,-1.35 -1.38,-0.81 -2.01,-1.89 -0.6,-1.08 -0.6,-2.67 0,-2.7 1.77,-4.26 1.8,-1.56 4.8,-1.53 2.1,0.03 3.51,-0.45 1.41,-0.51 3.12,-1.5 z m -7.71,1.62 q -2.01,0 -2.01,2.7 0,1.38 0.51,2.07 0.54,0.69 1.5,0.69 0.99,0 1.5,-0.66 0.51,-0.69 0.51,-2.16 0,-1.38 -0.51,-2.01 -0.48,-0.63 -1.5,-0.63 z"
                         style="font-family:'Fira Sans Condensed';-inkscape-font-specification:'Fira Sans Condensed,  Bold';fill:#f9f9f9"
                         id="path2251" />
                    </g>
                  </g>
                </g>
              </g>
            </g>
          </g>
        </g>
      </g>
    </g>
  </g>
</svg>
